<?xml version="1.0" encoding="UTF-8"?>
<svg id="_레이어_2" data-name="레이어_2" xmlns="http://www.w3.org/2000/svg" viewBox="0 0 139.2 94.76">
  <defs>
    <style>
      .cls-1 {
        fill: #fac03d;
      }

      .cls-2 {
        fill: #a97443;
      }

      .cls-3 {
        fill: none;
        font-family: GumiRomanceTTF, 'Gumi Romance TTF';
        font-size: 80px;
        stroke: #fff;
        stroke-miterlimit: 10;
        stroke-width: 8px;
      }
    </style>
  </defs>
  <g id="_레이어_1-2" data-name="레이어_1">
    <g>
      <text class="cls-3" transform="translate(4 72.68)"><tspan x="0" y="0">1월</tspan></text>
      <g>
        <path class="cls-1" d="M42.32,18.04c0-5.33-2.21-8-6.64-8-1.33,0-2.61.29-3.84.88l-15.36,6.96c-1.44.64-2.53,1.49-3.28,2.56-.75,1.07-1.12,2.24-1.12,3.52,0,.91.13,1.71.4,2.4.53,1.39,1.37,2.52,2.52,3.4,1.15.88,2.33,1.32,3.56,1.32.69,0,1.36-.16,2-.48l7.36-3.76v20.68h14.4v-29.48Z"/>
        <path class="cls-2" d="M49.84,60.2h-7.52v-12.68h-14.4v12.68h-11.76c-2.72,0-4.57.53-5.56,1.6-.99,1.07-1.48,2.69-1.48,4.88s.4,3.68,1.2,4.8c.8,1.12,2,1.68,3.6,1.68h33.68c2.67,0,4.51-.59,5.52-1.76,1.01-1.17,1.52-2.69,1.52-4.56,0-1.76-.41-3.31-1.24-4.64-.83-1.33-2.01-2-3.56-2Z"/>
        <path class="cls-1" d="M85.12,31.88c7.36,0,12.8-1.13,16.32-3.4,3.52-2.27,5.28-5.72,5.28-10.36,0-2.72-.72-4.99-2.16-6.8-1.44-1.81-3.21-3.15-5.32-4-2.11-.85-4.15-1.28-6.12-1.28-1.39,0-2.32.28-2.8.84-.48.56-.83,1.69-1.04,3.4l-.24,2.88c0,1.01.16,1.81.48,2.4.32.59.85.99,1.6,1.2.69.16,1.21.37,1.56.64.35.27.52.67.52,1.2s-.15.95-.44,1.24-1.03.53-2.2.72c-1.17.19-2.99.28-5.44.28s-4.47-.21-5.72-.64c-1.25-.43-1.88-.99-1.88-1.68,0-1.33,2.08-2.05,6.24-2.16,1.17-.05,2.05-.23,2.64-.52.59-.29,1.03-.85,1.32-1.68.29-.83.44-2.09.44-3.8,0-1.87-.32-3.17-.96-3.92-.64-.75-1.76-1.15-3.36-1.2-6.56-.16-11.52.85-14.88,3.04-3.36,2.19-5.04,5.47-5.04,9.84,0,9.17,7.07,13.76,21.2,13.76Z"/>
        <path class="cls-1" d="M112.56,27.72h2.48c0,3.84.11,8.69.32,14.56.05,1.65.4,2.84,1.04,3.56.64.72,1.49,1.17,2.56,1.36,1.07.19,2.61.28,4.64.28,1.65,0,2.95-.12,3.88-.36.93-.24,1.64-.76,2.12-1.56.48-.8.69-2.03.64-3.68-.21-4.48-.32-9.97-.32-16.48,0-5.97.11-10.99.32-15.04.11-2.35-.37-3.89-1.44-4.64-1.07-.75-2.8-1.12-5.2-1.12-2.93,0-5.01.39-6.24,1.16-1.23.77-1.89,2.39-2,4.84l-.16,3.92h-2.64c-1.71,0-2.88.56-3.52,1.68s-.96,2.83-.96,5.12.31,3.87.92,4.88c.61,1.01,1.8,1.52,3.56,1.52Z"/>
        <path class="cls-1" d="M93.36,45.32v-.16h4.88c5.97,0,9.84-.21,11.6-.64,1.07-.27,1.84-.71,2.32-1.32.48-.61.72-1.56.72-2.84,0-.69-.03-1.25-.08-1.68-.21-1.97-.69-3.32-1.44-4.04-.75-.72-1.79-1.08-3.12-1.08-.53,0-.96.03-1.28.08-2.24.27-6,.4-11.28.4-2.13,0-5.39-.05-9.76-.16-1.12-.05-2.91-.08-5.36-.08-7.36,0-13.15.4-17.36,1.2-1.23.27-2.11.76-2.64,1.48-.53.72-.8,1.8-.8,3.24,0,2.4.4,4.07,1.2,5,.8.93,1.89,1.4,3.28,1.4.43,0,1.01-.05,1.76-.16,3.41-.59,7.84-.93,13.28-1.04v.4c0,.94.13,1.67.38,2.2h13.33c.25-.53.38-1.26.38-2.2Z"/>
        <path class="cls-2" d="M130.48,73.4c-.64-.53-1.47-.8-2.48-.8-.8,0-1.87.13-3.2.4-1.92.32-5.68.61-11.28.88-5.6.27-11.23.4-16.88.4-3.04,0-5.28-.03-6.72-.08-1.28-.05-2.13-.19-2.56-.4-.43-.21-.64-.61-.64-1.2,0-.37.03-.67.08-.88v-.16c3.68.16,7.6.24,11.76.24,10.35,0,18.91-.45,25.68-1.36,1.92-.32,3.31-.83,4.16-1.52.85-.69,1.28-1.57,1.28-2.64,0-.69-.11-1.36-.32-2-.16-.69-.45-1.25-.88-1.68.21-1.28.32-2.56.32-3.84,0-3.09-.87-5.32-2.6-6.68-1.73-1.36-4.39-2.04-7.96-2.04-1.33,0-2.8.08-4.4.24-3.41.32-8.4.48-14.96.48-8.16,0-14.99-.19-20.48-.56-2.03-.16-3.44.05-4.24.64s-1.36,1.79-1.68,3.6l-.16,1.76c0,1.12.31,1.96.92,2.52.61.56,1.69.92,3.24,1.08,2.19.21,5.87.4,11.04.56,5.17.16,10.11.24,14.8.24,2.99,0,5.65-.05,8-.16,1.39-.11,2.36-.05,2.92.16.56.21.84.69.84,1.44l-.08.64c-4.32.37-9.52.56-15.6.56-7.79,0-14.4-.24-19.84-.72l-2.56-.08c-1.65,0-2.73.2-3.24.6-.51.4-.89,1.19-1.16,2.36-.21,1.07-.32,1.79-.32,2.16,0,.96.32,1.68.96,2.16l-.4,2.48c-.16,1.07-.24,2.05-.24,2.96,0,2.45.67,4.37,2,5.76,1.33,1.39,3.55,2.24,6.64,2.56,3.36.32,9.09.48,17.2.48,6.88,0,13.37-.13,19.48-.4,6.11-.27,10.09-.61,11.96-1.04,1.28-.27,2.17-.69,2.68-1.28.51-.59.76-1.36.76-2.32,0-.64-.13-1.55-.4-2.72-.32-1.33-.8-2.27-1.44-2.8Z"/>
        <path class="cls-2" d="M81.92,48.96c.91.13,2.37.2,4.4.2s3.49-.07,4.4-.2c.91-.13,1.57-.47,2-1,.1-.13.19-.27.26-.44h-13.33c.08.16.16.31.26.44.43.53,1.09.87,2,1Z"/>
      </g>
    </g>
  </g>
</svg>