<?xml version="1.0" encoding="UTF-8"?>
<svg id="_레이어_2" data-name="레이어_2" xmlns="http://www.w3.org/2000/svg" viewBox="0 0 796.09 114.4">
  <defs>
    <style>
      .cls-1 {
        fill: #f0d069;
      }

      @font-face {
        font-family: 'GumiRomance';
        src: url('/app/fonts/GumiRomance.otf') format('otf'),
        font-weight: normal;
        font-style: normal;
      }

      .cls-1, .cls-2 {
        font-family: GumiRomance;
        font-size: 100px;
      }

      .cls-3 {
        fill: none;
        stroke: #fff;
        stroke-miterlimit: 10;
        stroke-width: 20px;
      }

      .cls-2 {
        fill: #fedc5e;
      }
    </style>
  </defs>
  <g id="_레이어_1-2" data-name="레이어_1">
    <g>
      <g>
        <path class="cls-3" d="M61,74.2l-27.8.1c.47-.93,1.78-2.6,3.95-5,2.17-2.4,5.18-5.4,9.05-9,6.53-6,11.13-11.12,13.8-15.35,2.67-4.23,4-8.58,4-13.05,0-6.73-2.35-12.02-7.05-15.85-4.7-3.83-10.98-5.75-18.85-5.75-5.93,0-11.22,1.18-15.85,3.55-4.63,2.37-8.15,5.68-10.55,9.95-.8,1.4-1.2,2.8-1.2,4.2,0,2.6,1.23,4.77,3.7,6.5.73.53,1.6.95,2.6,1.25,1,.3,2,.45,3,.45,2.2,0,3.87-.67,5-2,2.33-2.87,4.47-4.88,6.4-6.05,1.93-1.17,4.2-1.75,6.8-1.75,2.4,0,4.35.63,5.85,1.9,1.5,1.27,2.25,2.9,2.25,4.9,0,1.6-.5,3.22-1.5,4.85-1,1.63-2.67,3.63-5,6-2.33,2.37-6,5.82-11,10.35-3.4,3.13-6.2,5.83-8.4,8.1-2.2,2.27-4.17,4.6-5.9,7-1.53,2.2-2.63,4.13-3.3,5.8-.67,1.67-1,3.5-1,5.5,0,3.13.85,5.5,2.55,7.1s4.18,2.4,7.45,2.4h41c2.27,0,4.02-.73,5.25-2.2,1.23-1.47,1.85-3.6,1.85-6.4,0-2.27-.65-4.08-1.95-5.45-1.3-1.37-3.02-2.05-5.15-2.05Z"/>
        <path class="cls-3" d="M122.75,15.05c-4.5-3.23-9.85-4.85-16.05-4.85-5.6,0-10.6,1.35-15,4.05-4.4,2.7-7.73,6.48-10,11.35-.47,1-.7,2.03-.7,3.1,0,1.67.63,3.18,1.9,4.55,1.27,1.37,2.82,2.42,4.65,3.15,1.83.73,3.58,1.1,5.25,1.1,2.27,0,3.7-.63,4.3-1.9,1.2-2.67,2.63-4.73,4.3-6.2,1.67-1.47,3.4-2.2,5.2-2.2,3.53,0,6.3,2.12,8.3,6.35,2,4.23,3,10.12,3,17.65s-1,13.18-3,17.35c-2,4.17-4.77,6.25-8.3,6.25s-6.17-1.95-8.1-5.85c-1.93-3.9-2.9-9.32-2.9-16.25l.2-7.2c.13-2.07-.62-3.7-2.25-4.9-1.63-1.2-3.98-1.8-7.05-1.8-2.87,0-5.13.55-6.8,1.65-1.67,1.1-2.53,2.65-2.6,4.65-.07.47-.1,2.97-.1,7.5,0,8.13,1.18,15.15,3.55,21.05,2.37,5.9,5.77,10.4,10.2,13.5,4.43,3.1,9.75,4.65,15.95,4.65s11.55-1.62,16.05-4.85,7.93-7.88,10.3-13.95c2.37-6.07,3.55-13.33,3.55-21.8s-1.18-15.88-3.55-22.05c-2.37-6.17-5.8-10.87-10.3-14.1Z"/>
        <path class="cls-3" d="M197,74.2l-27.8.1c.47-.93,1.78-2.6,3.95-5,2.17-2.4,5.18-5.4,9.05-9,6.53-6,11.13-11.12,13.8-15.35,2.67-4.23,4-8.58,4-13.05,0-6.73-2.35-12.02-7.05-15.85-4.7-3.83-10.98-5.75-18.85-5.75-5.93,0-11.22,1.18-15.85,3.55-4.63,2.37-8.15,5.68-10.55,9.95-.8,1.4-1.2,2.8-1.2,4.2,0,2.6,1.23,4.77,3.7,6.5.73.53,1.6.95,2.6,1.25,1,.3,2,.45,3,.45,2.2,0,3.87-.67,5-2,2.33-2.87,4.47-4.88,6.4-6.05,1.93-1.17,4.2-1.75,6.8-1.75,2.4,0,4.35.63,5.85,1.9,1.5,1.27,2.25,2.9,2.25,4.9,0,1.6-.5,3.22-1.5,4.85-1,1.63-2.67,3.63-5,6-2.33,2.37-6,5.82-11,10.35-3.4,3.13-6.2,5.83-8.4,8.1-2.2,2.27-4.17,4.6-5.9,7-1.53,2.2-2.63,4.13-3.3,5.8-.67,1.67-1,3.5-1,5.5,0,3.13.85,5.5,2.55,7.1s4.18,2.4,7.45,2.4h41c2.27,0,4.02-.73,5.25-2.2,1.23-1.47,1.85-3.6,1.85-6.4,0-2.27-.65-4.08-1.95-5.45-1.3-1.37-3.02-2.05-5.15-2.05Z"/>
        <path class="cls-3" d="M244.6,39.5c-1.07,0-2.52.13-4.35.4-1.83.27-3.58.6-5.25,1l1-13.3h25.4c2.2,0,3.93-.78,5.2-2.35,1.27-1.57,1.9-3.42,1.9-5.55s-.63-4.1-1.9-5.7c-1.27-1.6-3-2.4-5.2-2.4h-31.1c-3.47,0-6.08.73-7.85,2.2-1.77,1.47-2.75,3.7-2.95,6.7l-2.1,28.4c-.2,2.47.57,4.5,2.3,6.1,1.73,1.6,3.9,2.4,6.5,2.4.93,0,1.9-.13,2.9-.4,1-.27,1.93-.57,2.8-.9,1.27-.47,2.88-.88,4.85-1.25,1.97-.37,3.78-.55,5.45-.55,3.47,0,6.18.92,8.15,2.75,1.97,1.83,2.95,4.38,2.95,7.65,0,3.47-1.02,6.15-3.05,8.05-2.03,1.9-4.88,2.85-8.55,2.85-4.87,0-9.43-1.57-13.7-4.7-1.2-.8-2.4-1.2-3.6-1.2-2.2,0-4.4,1.3-6.6,3.9-1.47,2-2.2,3.9-2.2,5.7,0,2.07.9,3.87,2.7,5.4,2.47,2,5.77,3.67,9.9,5,4.13,1.33,8.63,2,13.5,2,9.27,0,16.48-2.37,21.65-7.1,5.17-4.73,7.75-11.33,7.75-19.8,0-7.93-2.33-14.13-7-18.6-4.67-4.47-11.17-6.7-19.5-6.7Z"/>
        <path class="cls-3" d="M361.45,65.8c-1.83-.73-3.58-1.1-5.25-1.1-2.33,0-3.8.63-4.4,1.9-1.2,2.67-2.92,4.7-5.15,6.1-2.23,1.4-4.72,2.1-7.45,2.1-4.13,0-7.42-2-9.85-6-2.43-4-3.65-9.93-3.65-17.8s1.17-13.72,3.5-17.75c2.33-4.03,5.4-6.05,9.2-6.05,2.73,0,5.22.7,7.45,2.1,2.23,1.4,3.95,3.43,5.15,6.1.6,1.27,1.97,1.9,4.1,1.9,1.6,0,3.25-.37,4.95-1.1,1.7-.73,3.13-1.75,4.3-3.05,1.17-1.3,1.75-2.78,1.75-4.45,0-.93-.27-2.03-.8-3.3-2.27-4.87-5.78-8.62-10.55-11.25-4.77-2.63-10.25-3.95-16.45-3.95-9.8,0-17.47,3.47-23,10.4-5.53,6.93-8.3,17.07-8.3,30.4s2.82,23.55,8.45,30.45c5.63,6.9,13.52,10.35,23.65,10.35,6.67,0,12.47-1.3,17.4-3.9,4.93-2.6,8.53-6.37,10.8-11.3.47-1,.7-2.03.7-3.1,0-1.67-.63-3.18-1.9-4.55-1.27-1.37-2.82-2.42-4.65-3.15Z"/>
        <path class="cls-3" d="M430.4,33.55c-1.8-.9-4.17-1.35-7.1-1.35-2.67,0-4.63.55-5.9,1.65-1.27,1.1-1.9,3.12-1.9,6.05v.5h-.3c-1.4-2.67-3.42-4.93-6.05-6.8-2.63-1.87-5.55-2.8-8.75-2.8-7.27,0-12.92,2.77-16.95,8.3-4.03,5.53-6.05,13.23-6.05,23.1,0,9.33,2.1,16.6,6.3,21.8,4.2,5.2,10.1,7.8,17.7,7.8,2.4,0,4.6-.4,6.6-1.2,1.47-.53,2.62-1.38,3.45-2.55.83-1.17,1.28-2.85,1.35-5.05,0-1.73-.43-3.27-1.3-4.6-.87-1.33-1.9-2-3.1-2-.4,0-.7.03-.9.1-.87.27-1.8.4-2.8.4-2.87,0-5.08-1.32-6.65-3.95-1.57-2.63-2.35-6.38-2.35-11.25,0-4.27.8-7.58,2.4-9.95,1.6-2.37,3.83-3.55,6.7-3.55,1.4,0,2.85.48,4.35,1.45,1.5.97,2.75,2.28,3.75,3.95,1,1.67,1.53,3.5,1.6,5.5v2.7c0,7.8-.1,14.67-.3,20.6-.07,3,.72,5.08,2.35,6.25,1.63,1.17,3.95,1.75,6.95,1.75,2.8,0,4.93-.43,6.4-1.3,1.47-.87,2.23-2.77,2.3-5.7.6-16.33.9-31.07.9-44.2,0-2.87-.9-4.75-2.7-5.65Z"/>
        <path class="cls-3" d="M462.69,11.3c-1.47-.87-3.67-1.3-6.6-1.3-6.27,0-9.23,2.67-8.9,8,.47,9.2.7,20,.7,32.4,0,13.13-.27,23.8-.8,32-.33,5.33,2.67,8,9,8,2.93,0,5.13-.43,6.6-1.3,1.47-.87,2.27-2.77,2.4-5.7.53-11.07.8-23.5.8-37.3,0-12.47-.23-22.17-.7-29.1-.2-2.93-1.03-4.83-2.5-5.7Z"/>
        <path class="cls-3" d="M512.59,55.25c-1.33.77-3.07,1.15-5.2,1.15-1.47,0-3.03-.17-4.7-.5-1.2-.2-2.15.23-2.85,1.3-.7,1.07-1.05,2.43-1.05,4.1,0,1.87.35,3.28,1.05,4.25.7.97,1.75,1.62,3.15,1.95,1.73.4,3.8.6,6.2.6,14,0,21-5.23,21-15.7,0-4.07-.98-7.73-2.95-11-1.97-3.27-4.75-5.83-8.35-7.7-3.6-1.87-7.8-2.8-12.6-2.8-8.87,0-15.73,2.68-20.6,8.05-4.87,5.37-7.3,12.85-7.3,22.45s2.47,17.07,7.4,22.4c4.93,5.33,11.97,8,21.1,8,4.53,0,8.62-.75,12.25-2.25,3.63-1.5,6.58-3.65,8.85-6.45.93-1.2,1.4-2.53,1.4-4s-.45-2.83-1.35-4.1c-.9-1.27-2.03-2.3-3.4-3.1-1.37-.8-2.68-1.2-3.95-1.2-1.6,0-2.8.5-3.6,1.5-1.6,1.87-3.15,3.17-4.65,3.9-1.5.73-3.32,1.1-5.45,1.1-3.4,0-5.98-1.38-7.75-4.15-1.77-2.77-2.65-6.65-2.65-11.65s.88-8.87,2.65-11.6c1.77-2.73,4.35-4.1,7.75-4.1,2.33,0,4.18.5,5.55,1.5,1.37,1,2.05,2.4,2.05,4.2s-.67,3.08-2,3.85Z"/>
        <path class="cls-3" d="M588.74,35.75c-2.77-3.3-6.78-4.95-12.05-4.95-4.2,0-7.85,1.13-10.95,3.4-3.1,2.27-5.62,5.53-7.55,9.8h-.3l-.2-4.8c-.07-2.93-.85-4.83-2.35-5.7-1.5-.87-3.68-1.3-6.55-1.3-5.93,0-8.83,2.67-8.7,8,.2,6.07.3,12.77.3,20.1,0,8.93-.13,16.3-.4,22.1-.27,5.33,2.73,8,9,8,2.93,0,5.13-.43,6.6-1.3,1.47-.87,2.27-2.77,2.4-5.7.4-7.6.6-14.57.6-20.9,0-2.07.55-4.23,1.65-6.5,1.1-2.27,2.52-4.13,4.25-5.6,1.73-1.47,3.47-2.2,5.2-2.2s3.2.6,4.2,1.8c1,1.2,1.53,3.23,1.6,6.1.07,1.27.1,3.27.1,6,0,4.2-.2,10.97-.6,20.3-.13,3,.58,5.08,2.15,6.25,1.57,1.17,3.85,1.75,6.85,1.75,2.13,0,3.8-.15,5-.45,1.2-.3,2.17-.95,2.9-1.95.73-1,1.13-2.53,1.2-4.6.27-5.4.4-11.4.4-18,0-5.33-.1-10.43-.3-15.3-.2-6.27-1.68-11.05-4.45-14.35Z"/>
        <path class="cls-3" d="M658.89,50.4c0-12.4.23-23.2.7-32.4.2-2.93-.53-5-2.2-6.2-1.67-1.2-3.97-1.8-6.9-1.8s-5.33.43-6.8,1.3c-1.47.87-2.3,2.77-2.5,5.7-.2,2.93-.37,8-.5,15.2l.8,8.2h-.3c-1.4-2.67-3.42-4.93-6.05-6.8-2.63-1.87-5.55-2.8-8.75-2.8-7.27,0-12.92,2.77-16.95,8.3-4.03,5.53-6.05,13.23-6.05,23.1,0,9.33,2.1,16.6,6.3,21.8,4.2,5.2,10.1,7.8,17.7,7.8,2.4,0,4.6-.4,6.6-1.2,1.47-.53,2.62-1.38,3.45-2.55.83-1.17,1.28-2.85,1.35-5.05,0-1.73-.43-3.27-1.3-4.6-.87-1.33-1.9-2-3.1-2-.4,0-.7.03-.9.1-.87.27-1.8.4-2.8.4-2.87,0-5.08-1.32-6.65-3.95-1.57-2.63-2.35-6.38-2.35-11.25,0-4.27.8-7.58,2.4-9.95,1.6-2.37,3.83-3.55,6.7-3.55,1.4,0,2.85.48,4.35,1.45,1.5.97,2.75,2.28,3.75,3.95,1,1.67,1.53,3.5,1.6,5.5v1.7l.8,22.6c.13,2.93.93,4.83,2.4,5.7,1.47.87,3.73,1.3,6.8,1.3,6.47,0,9.53-2.67,9.2-8-.53-8.2-.8-18.87-.8-32Z"/>
        <path class="cls-3" d="M722.59,33.55c-1.8-.9-4.17-1.35-7.1-1.35-2.67,0-4.63.55-5.9,1.65-1.27,1.1-1.9,3.12-1.9,6.05v.5h-.3c-1.4-2.67-3.42-4.93-6.05-6.8-2.63-1.87-5.55-2.8-8.75-2.8-7.27,0-12.92,2.77-16.95,8.3-4.03,5.53-6.05,13.23-6.05,23.1,0,9.33,2.1,16.6,6.3,21.8,4.2,5.2,10.1,7.8,17.7,7.8,2.4,0,4.6-.4,6.6-1.2,1.47-.53,2.62-1.38,3.45-2.55.83-1.17,1.28-2.85,1.35-5.05,0-1.73-.43-3.27-1.3-4.6-.87-1.33-1.9-2-3.1-2-.4,0-.7.03-.9.1-.87.27-1.8.4-2.8.4-2.87,0-5.08-1.32-6.65-3.95-1.57-2.63-2.35-6.38-2.35-11.25,0-4.27.8-7.58,2.4-9.95,1.6-2.37,3.83-3.55,6.7-3.55,1.4,0,2.85.48,4.35,1.45,1.5.97,2.75,2.28,3.75,3.95,1,1.67,1.53,3.5,1.6,5.5v2.7c0,7.8-.1,14.67-.3,20.6-.07,3,.72,5.08,2.35,6.25,1.63,1.17,3.95,1.75,6.95,1.75,2.8,0,4.93-.43,6.4-1.3,1.47-.87,2.23-2.77,2.3-5.7.6-16.33.9-31.07.9-44.2,0-2.87-.9-4.75-2.7-5.65Z"/>
        <path class="cls-3" d="M782.29,35.1c-2.53-2.87-5.93-4.3-10.2-4.3-3.73,0-7.1,1.15-10.1,3.45-3,2.3-5.47,5.55-7.4,9.75h-.3l-.2-4.8c-.07-2.93-.85-4.83-2.35-5.7-1.5-.87-3.68-1.3-6.55-1.3-5.93,0-8.83,2.67-8.7,8,.2,6.07.3,12.77.3,20.1,0,8.93-.13,16.3-.4,22.1-.27,5.33,2.73,8,9,8,2.93,0,5.13-.43,6.6-1.3,1.47-.87,2.27-2.77,2.4-5.7.4-7.6.6-14.57.6-20.9,0-2.07.55-4.22,1.65-6.45,1.1-2.23,2.47-4.1,4.1-5.6,1.63-1.5,3.22-2.25,4.75-2.25s2.8.5,3.8,1.5,1.53,2.47,1.6,4.4c.07.93.62,1.68,1.65,2.25,1.03.57,2.28.85,3.75.85,2.53,0,4.8-.87,6.8-2.6,2-1.73,3-4.37,3-7.9,0-4.87-1.27-8.73-3.8-11.6Z"/>
      </g>
      <g>
        <text class="cls-1" transform="translate(8.73 91.8)"><tspan x="0" y="0">2025 Calendar</tspan></text>
        <text class="cls-2" transform="translate(3.8 86.87)"><tspan x="0" y="0">2025 Calendar</tspan></text>
      </g>
    </g>
  </g>
</svg>