<?xml version="1.0" encoding="UTF-8"?>
<svg id="_레이어_2" data-name="레이어_2" xmlns="http://www.w3.org/2000/svg" viewBox="0 0 56.73 48.22">
  <defs>
    <style>
      .cls-1 {
        fill: #eec550;
      }

      .cls-1, .cls-2 {
        stroke: #231815;
        stroke-miterlimit: 10;
      }

      .cls-2 {
        fill: #a05f79;
      }

      .cls-3 {
        fill: #231815;
      }
    </style>
  </defs>
  <g id="_레이어_1-2" data-name="레이어_1">
    <g>
      <path class="cls-2" d="M38.41,40.1c2.78-2.2,5.13-4.86,7.12-7.72-2.52-1.84-5.25-4.42-5.39-7.05-.25-4.91-1.39-8.47-4.41-12.03-1.67-1.96.98-7.82,3.7-12.69-6.82.45-14.6,2.33-21.11,7.49C2.95,20.3.54,46.18.54,46.18c0,0,22.5,6.11,37.87-6.08Z"/>
      <path class="cls-1" d="M35.73,13.31c3.03,3.56,4.16,7.12,4.41,12.03.13,2.63,2.87,5.21,5.39,7.05,9.04-12.99,10.66-30.35,10.66-30.35,0,0-7.48-2.03-16.76-1.41-2.72,4.87-5.37,10.73-3.7,12.69Z"/>
      <path class="cls-3" d="M28.99,37.99c-2.03,1.07-3.8,1.52-3.96,1.02s1.35-1.78,3.38-2.84,3.8-1.52,3.96-1.02-1.35,1.78-3.38,2.84Z"/>
    </g>
  </g>
</svg>