<?xml version="1.0" encoding="UTF-8"?>
<svg id="_레이어_2" data-name="레이어_2" xmlns="http://www.w3.org/2000/svg" viewBox="0 0 409.43 270.95">
  <defs>
    <style>
      .cls-1 {
        fill: #e88453;
      }

      .cls-2, .cls-3, .cls-4, .cls-5 {
        stroke: #231815;
        stroke-miterlimit: 10;
        stroke-width: 2px;
      }

      .cls-2, .cls-6 {
        fill: #976a38;
      }

      .cls-3 {
        fill: #fff;
      }

      .cls-7 {
        fill: #231815;
      }

      .cls-8, .cls-4 {
        fill: #f2c357;
      }

      .cls-5 {
        fill: none;
        stroke-linecap: round;
      }
    </style>
  </defs>
  <g id="_레이어_1-2" data-name="레이어_1">
    <g>
      <ellipse class="cls-2" cx="327.16" cy="31.75" rx="32.59" ry="30.75"/>
      <path class="cls-8" d="M138.24,63.25s-7.43-15.72,42.47-43.68c49.91-27.95,102.05,6.14,102.05,6.14l53.05,67.75,22.41,81.7,2.65,12.04s12.82,15.89,8.39,26.65c-4.43,10.76-18.67,33.92-54.79,34.86-36.12.94-77.3,0-77.3,0L138.24,63.25Z"/>
      <path class="cls-6" d="M215.69,7.95s150.38,91.99,113.19,170.84c0,0,24.32-2.13,35.75,11.39s-2.74,18.12,10.52,16.04c13.26-2.09,33.39-11.81,33.28-27.44-.1-15.63,3.74-38-24.15-43.87l-9.14-.89-1.83-23.53s-12.08-54.82-34.39-70.27c-22.31-15.45-34.4-26.3-65.41-29.62-31.01-3.32-57.83-2.66-57.83-2.66Z"/>
      <path class="cls-5" d="M312.69,180.26s53.28-10.36,56.94,23.73c3.66,34.09-41.39,45.53-69.97,45.74s-71.8-1.29-71.8-1.29"/>
      <path class="cls-5" d="M130.67,64.83S167.48,8.95,224.65,7.22c57.17-1.73,116.17,14.67,136.06,64.51,19.89,49.84,10.29,83.93,10.29,83.93"/>
      <path class="cls-5" d="M373.31,134.09s33.13-2.8,34.96,28.05-12.61,44.23-38.44,45.09"/>
      <path class="cls-4" d="M3.47,199.55c0,8.52-12.34,43.42,18.16,55.14,39.03,15,187.21,25.6,225.17-1.29,59.74-42.33,45.07-126.44,5.95-156.64-6.71-5.18-7.93-29.34-15.4-34.09s-27.29-3.88-38.57-1.87-49.85-14.84-97.41-.29c-5.64,1.73-20.12-10.79-32.93-4.32s-10.67,18.41-19.51,30.35S10.04,119.35,5.93,156.46c-4.12,37.11-2.46,34.58-2.46,43.1Z"/>
      <ellipse class="cls-7" cx="80.02" cy="151.57" rx="10.37" ry="9.78"/>
      <ellipse class="cls-7" cx="160.2" cy="151.57" rx="10.37" ry="9.78"/>
      <ellipse class="cls-1" cx="48.46" cy="192.13" rx="31.56" ry="29.77"/>
      <ellipse class="cls-1" cx="184.13" cy="193.68" rx="31.56" ry="29.77"/>
      <g>
        <line class="cls-5" x1="65.57" y1="177.6" x2="88.29" y2="189.97"/>
        <line class="cls-5" x1="64.2" y1="206.22" x2="90.38" y2="194.5"/>
        <line class="cls-5" x1="166.3" y1="177.6" x2="143.59" y2="189.97"/>
        <line class="cls-5" x1="167.67" y1="206.22" x2="141.49" y2="194.5"/>
      </g>
      <path class="cls-3" d="M130.95,175.49c-1.15,0-2.17-.02-3.29-.01l-25.26-.32c-1.12,0-2.26,0-3.41,0-10.4,0-18.83,8.66-18.83,19.35s8.43,19.35,18.83,19.35c3.81,0,7.15-1.16,9.94-3.15,3.26-2.33,7.57-2.6,10.88-.35s7.17,3.5,11.19,3.5c10.4,0,18.83-8.66,18.83-19.35s-8.49-19.01-18.89-19.01Z"/>
    </g>
  </g>
</svg>