<?xml version="1.0" encoding="UTF-8"?>
<svg id="_레이어_2" data-name="레이어_2" xmlns="http://www.w3.org/2000/svg" viewBox="0 0 131.55 223.05">
  <defs>
    <style>
      .cls-1 {
        fill: #eec550;
      }

      .cls-1, .cls-2, .cls-3, .cls-4, .cls-5, .cls-6 {
        stroke: #231815;
        stroke-miterlimit: 10;
      }

      .cls-2 {
        fill: #a05f79;
      }

      .cls-3, .cls-4, .cls-5, .cls-6 {
        stroke-width: 2px;
      }

      .cls-3, .cls-6 {
        fill: none;
      }

      .cls-7 {
        fill: #e88453;
      }

      .cls-4 {
        fill: #fff;
      }

      .cls-8 {
        fill: #231815;
      }

      .cls-9, .cls-5 {
        fill: #f2c357;
      }

      .cls-10 {
        fill: #976a38;
      }

      .cls-6 {
        stroke-linecap: round;
      }
    </style>
  </defs>
  <g id="_레이어_1-2" data-name="레이어_1">
    <g>
      <g>
        <g>
          <path class="cls-10" d="M22.37,159.28l106-13.69s3.98,22.03,2.18,32.36-3.43,30.39-11.69,37.08-18.3,7.49-22.85,4.92-11.57-8.47-11.08-15.63l-.37-4.68h-9.11s-3.24,17.56-11.81,19.96c-8.57,2.4-18.94,4.14-26.28-5.81,0,0-3.71-4.28-3.49-21.56l-.4-14.28-11.11-18.67Z"/>
          <path class="cls-9" d="M18.38,143.12s-19.07-5.18-15.92-23.88c3.15-18.7,14.07-22.4,22.4-21.29s10.74,14.44,10.18,17.59,53.5,5.92,67.38-2.22l8.06-4.69s14.08,12.96,15.45,24.5c.62,5.23,3.52,17.03,3.52,17.03,0,0-36.47,13.7-78.49,10.74,0,0-2.59,12.59-8.33,14.62-5.74,2.04-17.31,5.83-21.84-4.07s-2.41-28.32-2.41-28.32Z"/>
          <path class="cls-3" d="M102.17,102.09s22.03,13.33,26.1,37.95c4.07,24.62,3.33,60.72-7.59,73.12-10.92,12.4-27.1,9.43-33.14,0-2.96-4.63-2.34-13.51-2.34-13.51h-9.75s-1.73,16.41-14.07,20.98-23.45-2.59-25.92-10.74c-2.47-8.15-1.36-31.1-1.36-31.1,0,0-16.04.25-16.04-19.75v-15.55S.05,136.33,1.04,121.4c.99-14.93,12.83-23.08,19.87-22.83s81.27,3.52,81.27,3.52Z"/>
          <path class="cls-6" d="M18.07,143.49s5.09-23.99,23.79-28.53"/>
          <path class="cls-5" d="M110.85,33.26c.03-.36.05-.72.05-1.09,0-8.01-6.44-14.5-14.38-14.5-2.8,0-5.4.82-7.61,2.22-6.72-2.45-13.97-3.82-21.54-3.82-8.17,0-15.97,1.62-23.13,4.44-2.39-1.78-5.33-2.84-8.52-2.84-7.94,0-14.38,6.49-14.38,14.5,0,1.1.13,2.16.36,3.19-10.55,10.61-17.02,24.39-17.02,38.15,0,28.69,28.07,46.46,62.69,46.46s62.69-17.77,62.69-46.46c0-14.7-7.38-29.4-19.22-40.26Z"/>
          <circle class="cls-8" cx="41.89" cy="64.26" r="4.75"/>
          <circle class="cls-8" cx="77.77" cy="64.26" r="4.75"/>
          <circle class="cls-7" cx="28.2" cy="81.62" r="13.26"/>
          <circle class="cls-7" cx="90.39" cy="81.62" r="13.26"/>
          <line class="cls-6" x1="38.12" y1="75.99" x2="47.75" y2="79.04"/>
          <line class="cls-6" x1="46.64" y1="84.87" x2="38.77" y2="88.3"/>
          <line class="cls-6" x1="80.27" y1="88.3" x2="70.65" y2="85.24"/>
          <line class="cls-6" x1="71.76" y1="79.41" x2="79.63" y2="75.99"/>
          <path class="cls-4" d="M59.11,86.54c-.33-.44-.98-.4-1.25.08-1.11,1.98-3.82,5.2-9.19,3.34-7.5-2.59-6.11-16.75,7.68-17.49,13.79-.74,16.66,5.28,16.94,9,.32,4.33-1.02,8.12-6.39,8.4-4,.21-6.67-1.8-7.8-3.33Z"/>
          <path class="cls-6" d="M53.61,145.59s-.33,24.04-10.86,30.11c-7,4.04-8.25,3.1-8.25,3.1"/>
          <path class="cls-6" d="M75.46,199.64s11.4.06,16.49-.5"/>
        </g>
        <path class="cls-6" d="M99.12,178.9c-8.15-3.94-4.69-13.19.25-15.41,4.94-2.22,12.59,1.11,14.19,6.91,1.6,5.8-.12,15.3-5.8,17.52-5.68,2.22-9.38,1.23-9.38,1.23"/>
      </g>
      <g>
        <path class="cls-2" d="M82.71,20.79c.85-1.26,1.46-2.67,1.89-4.15-1.27-.56-2.74-1.43-3.14-2.59-.75-2.16-1.69-3.62-3.4-4.9-.94-.7-.63-3.57-.17-6.01-2.73.89-5.67,2.5-7.65,5.45-4.68,6.96-2.24,18.71-2.24,18.71,0,0,10.03.45,14.7-6.51Z"/>
        <path class="cls-1" d="M78.07,9.15c1.71,1.28,2.65,2.75,3.4,4.9.4,1.15,1.87,2.03,3.14,2.59,1.98-6.68.35-14.56.35-14.56,0,0-3.33-.15-7.05,1.06-.47,2.44-.78,5.31.17,6.01Z"/>
        <ellipse class="cls-8" cx="78.34" cy="20.42" rx="1.75" ry=".44" transform="translate(8.76 61.81) rotate(-45.36)"/>
      </g>
      <g>
        <path class="cls-2" d="M69.19,8.88c-1.43-1.49-3.14-2.71-4.98-3.72-1.12,1.53-2.7,3.23-4.35,3.43-3.09.38-5.31,1.2-7.5,3.11-1.21,1.05-4.94-.19-8.05-1.51.39,3.89,1.7,8.27,5.05,11.76,7.92,8.24,24.26,8.38,24.26,8.38,0,0,3.49-13.21-4.43-21.45Z"/>
        <path class="cls-1" d="M52.36,11.71c2.19-1.91,4.42-2.73,7.5-3.11,1.65-.2,3.23-1.9,4.35-3.43C55.89.6,44.93.5,44.93.5c0,0-1.16,4.39-.62,9.69,3.11,1.32,6.84,2.56,8.05,1.51Z"/>
        <ellipse class="cls-8" cx="67.44" cy="14.6" rx=".59" ry="2.39" transform="translate(2.99 39.23) rotate(-33.13)"/>
      </g>
    </g>
  </g>
</svg>